<svg xmlns="http://www.w3.org/2000/svg" width="407.163" height="94.014" viewBox="0 0 407.163 94.014"><g transform="translate(1 1.05)"><path d="M11.445,39.672a7.21,7.21,0,0,1-5.117-1.855,5.978,5.978,0,0,1-1.992-4.551,5.766,5.766,0,0,1,1.992-4.531,7.448,7.448,0,0,1,5.117-1.758,7.432,7.432,0,0,1,5.137,1.758,5.791,5.791,0,0,1,1.973,4.531,5.955,5.955,0,0,1-1.973,4.609A7.332,7.332,0,0,1,11.445,39.672ZM17.539,86H5.2V46H17.539ZM68.477,40.258H52.5V86H39.844V40.258h-15.9V29.984H68.477ZM136.094,81.43q0,11.133-6.445,17.246t-18.672,6.113q-8.086,0-12.812-2.3V92.094a24.536,24.536,0,0,0,12.461,3.594q6.25,0,9.688-3.3a11.845,11.845,0,0,0,3.438-8.965V80.258h-.156a13.785,13.785,0,0,1-12.461,6.719,14.988,14.988,0,0,1-12.148-5.391Q94.492,76.2,94.492,67.133q0-10.156,5-16.133a16.323,16.323,0,0,1,13.164-5.977q7.3,0,10.938,5.625h.156V46h12.344ZM123.906,66.781V63.617a9.723,9.723,0,0,0-2.246-6.465,7.265,7.265,0,0,0-5.84-2.676,7.55,7.55,0,0,0-6.445,3.2q-2.344,3.2-2.344,9.023a12.713,12.713,0,0,0,2.227,7.91,7.256,7.256,0,0,0,6.094,2.91,7.554,7.554,0,0,0,6.191-2.949A12.092,12.092,0,0,0,123.906,66.781ZM158.75,86H146.406V26.781H158.75Zm29.453.977q-10,0-15.723-5.605t-5.723-15.215q0-9.922,5.938-15.527t16.055-5.605q9.961,0,15.625,5.605t5.664,14.824q0,9.961-5.84,15.742T188.2,86.977Zm.313-32.5a8.233,8.233,0,0,0-6.8,3.008Q179.3,60.492,179.3,66q0,11.523,9.3,11.523,8.867,0,8.867-11.836Q197.461,54.477,188.516,54.477ZM215.43,84.945v-10A26.281,26.281,0,0,0,221.5,77.68a20.14,20.14,0,0,0,5.723.9,12.274,12.274,0,0,0,5.176-.9,2.9,2.9,0,0,0,1.895-2.734,2.53,2.53,0,0,0-.859-1.953,7.988,7.988,0,0,0-2.207-1.367,25.046,25.046,0,0,0-2.949-1.055q-1.6-.469-3.086-1.055a29.568,29.568,0,0,1-4.2-1.934,12.137,12.137,0,0,1-3.047-2.4,9.443,9.443,0,0,1-1.875-3.164,12.626,12.626,0,0,1-.645-4.258,10.961,10.961,0,0,1,1.465-5.781,11.965,11.965,0,0,1,3.906-3.965,17.848,17.848,0,0,1,5.586-2.266,29.126,29.126,0,0,1,6.543-.723,36.3,36.3,0,0,1,5.391.41,40.234,40.234,0,0,1,5.391,1.191v9.531a19.478,19.478,0,0,0-5.02-2.051,21.174,21.174,0,0,0-5.254-.684,11.641,11.641,0,0,0-2.285.215,7.527,7.527,0,0,0-1.895.625,3.479,3.479,0,0,0-1.289,1.055,2.428,2.428,0,0,0-.469,1.465,2.706,2.706,0,0,0,.7,1.875A6.107,6.107,0,0,0,230.039,60a18.124,18.124,0,0,0,2.52,1.016q1.387.449,2.754.918a35.805,35.805,0,0,1,4.453,1.875,14.238,14.238,0,0,1,3.418,2.383,9.357,9.357,0,0,1,2.188,3.2,12.816,12.816,0,0,1-.781,10.449,12.353,12.353,0,0,1-4.1,4.1,18.6,18.6,0,0,1-5.9,2.3,32.7,32.7,0,0,1-6.934.723A35.744,35.744,0,0,1,215.43,84.945Zm35.2,0v-10A26.281,26.281,0,0,0,256.7,77.68a20.14,20.14,0,0,0,5.723.9,12.274,12.274,0,0,0,5.176-.9,2.9,2.9,0,0,0,1.895-2.734,2.53,2.53,0,0,0-.859-1.953,7.988,7.988,0,0,0-2.207-1.367,25.045,25.045,0,0,0-2.949-1.055q-1.6-.469-3.086-1.055a29.568,29.568,0,0,1-4.2-1.934,12.137,12.137,0,0,1-3.047-2.4,9.443,9.443,0,0,1-1.875-3.164,12.626,12.626,0,0,1-.645-4.258,10.961,10.961,0,0,1,1.465-5.781A11.965,11.965,0,0,1,256,48.012a17.848,17.848,0,0,1,5.586-2.266,29.126,29.126,0,0,1,6.543-.723,36.3,36.3,0,0,1,5.391.41,40.235,40.235,0,0,1,5.391,1.191v9.531a19.479,19.479,0,0,0-5.02-2.051,21.174,21.174,0,0,0-5.254-.684,11.641,11.641,0,0,0-2.285.215,7.526,7.526,0,0,0-1.895.625,3.479,3.479,0,0,0-1.289,1.055,2.428,2.428,0,0,0-.469,1.465,2.706,2.706,0,0,0,.7,1.875A6.107,6.107,0,0,0,265.234,60a18.125,18.125,0,0,0,2.52,1.016q1.387.449,2.754.918a35.805,35.805,0,0,1,4.453,1.875,14.239,14.239,0,0,1,3.418,2.383,9.357,9.357,0,0,1,2.188,3.2,12.816,12.816,0,0,1-.781,10.449,12.354,12.354,0,0,1-4.1,4.1,18.6,18.6,0,0,1-5.9,2.3,32.7,32.7,0,0,1-6.934.723A35.744,35.744,0,0,1,250.625,84.945ZM321.719,86h-11.68V80.258h-.156a13.036,13.036,0,0,1-11.914,6.719q-5.82,0-9.16-3.3a11.828,11.828,0,0,1-3.34-8.809q0-11.641,13.789-13.437l10.859-1.445q0-6.562-7.109-6.562a24.267,24.267,0,0,0-13.594,4.258v-9.3a30.582,30.582,0,0,1,7.051-2.344,37.064,37.064,0,0,1,8.145-1.016q17.109,0,17.109,17.07Zm-11.6-16.25v-2.7l-7.266.938q-6.016.781-6.016,5.43a4.487,4.487,0,0,0,1.465,3.457,5.629,5.629,0,0,0,3.965,1.348,7.308,7.308,0,0,0,5.664-2.4A8.677,8.677,0,0,0,310.117,69.75Zm47.461-12.617a10.708,10.708,0,0,0-5.2-1.211,7.485,7.485,0,0,0-6.289,2.949q-2.266,2.949-2.266,8.027V86H331.484V46h12.344v7.422h.156q2.93-8.125,10.547-8.125a7.949,7.949,0,0,1,3.047.469ZM404.609,46l-16.25,43.2Q382.5,104.789,370.7,104.789a22.621,22.621,0,0,1-7.383-1.016V93.93a10.381,10.381,0,0,0,5.352,1.445,6.685,6.685,0,0,0,6.641-4.492l2.109-4.961L361.172,46h13.672L382.3,70.336a31.623,31.623,0,0,1,1.094,5.352h.156a37.315,37.315,0,0,1,1.289-5.273L392.383,46Z" transform="matrix(0.999, -0.035, 0.035, 0.999, -3.336, -12.644)" fill="#fff" stroke="#000" stroke-width="2"/><path d="M11.445,39.672a7.21,7.21,0,0,1-5.117-1.855,5.978,5.978,0,0,1-1.992-4.551,5.766,5.766,0,0,1,1.992-4.531,7.448,7.448,0,0,1,5.117-1.758,7.432,7.432,0,0,1,5.137,1.758,5.791,5.791,0,0,1,1.973,4.531,5.955,5.955,0,0,1-1.973,4.609A7.332,7.332,0,0,1,11.445,39.672ZM17.539,86H5.2V46H17.539ZM68.477,40.258H52.5V86H39.844V40.258h-15.9V29.984H68.477ZM136.094,81.43q0,11.133-6.445,17.246t-18.672,6.113q-8.086,0-12.812-2.3V92.094a24.536,24.536,0,0,0,12.461,3.594q6.25,0,9.688-3.3a11.845,11.845,0,0,0,3.438-8.965V80.258h-.156a13.785,13.785,0,0,1-12.461,6.719,14.988,14.988,0,0,1-12.148-5.391Q94.492,76.2,94.492,67.133q0-10.156,5-16.133a16.323,16.323,0,0,1,13.164-5.977q7.3,0,10.938,5.625h.156V46h12.344ZM123.906,66.781V63.617a9.723,9.723,0,0,0-2.246-6.465,7.265,7.265,0,0,0-5.84-2.676,7.55,7.55,0,0,0-6.445,3.2q-2.344,3.2-2.344,9.023a12.713,12.713,0,0,0,2.227,7.91,7.256,7.256,0,0,0,6.094,2.91,7.554,7.554,0,0,0,6.191-2.949A12.092,12.092,0,0,0,123.906,66.781ZM158.75,86H146.406V26.781H158.75Zm29.453.977q-10,0-15.723-5.605t-5.723-15.215q0-9.922,5.938-15.527t16.055-5.605q9.961,0,15.625,5.605t5.664,14.824q0,9.961-5.84,15.742T188.2,86.977Zm.313-32.5a8.233,8.233,0,0,0-6.8,3.008Q179.3,60.492,179.3,66q0,11.523,9.3,11.523,8.867,0,8.867-11.836Q197.461,54.477,188.516,54.477ZM215.43,84.945v-10A26.281,26.281,0,0,0,221.5,77.68a20.14,20.14,0,0,0,5.723.9,12.274,12.274,0,0,0,5.176-.9,2.9,2.9,0,0,0,1.895-2.734,2.53,2.53,0,0,0-.859-1.953,7.988,7.988,0,0,0-2.207-1.367,25.046,25.046,0,0,0-2.949-1.055q-1.6-.469-3.086-1.055a29.568,29.568,0,0,1-4.2-1.934,12.137,12.137,0,0,1-3.047-2.4,9.443,9.443,0,0,1-1.875-3.164,12.626,12.626,0,0,1-.645-4.258,10.961,10.961,0,0,1,1.465-5.781,11.965,11.965,0,0,1,3.906-3.965,17.848,17.848,0,0,1,5.586-2.266,29.126,29.126,0,0,1,6.543-.723,36.3,36.3,0,0,1,5.391.41,40.234,40.234,0,0,1,5.391,1.191v9.531a19.478,19.478,0,0,0-5.02-2.051,21.174,21.174,0,0,0-5.254-.684,11.641,11.641,0,0,0-2.285.215,7.527,7.527,0,0,0-1.895.625,3.479,3.479,0,0,0-1.289,1.055,2.428,2.428,0,0,0-.469,1.465,2.706,2.706,0,0,0,.7,1.875A6.107,6.107,0,0,0,230.039,60a18.124,18.124,0,0,0,2.52,1.016q1.387.449,2.754.918a35.805,35.805,0,0,1,4.453,1.875,14.238,14.238,0,0,1,3.418,2.383,9.357,9.357,0,0,1,2.188,3.2,12.816,12.816,0,0,1-.781,10.449,12.353,12.353,0,0,1-4.1,4.1,18.6,18.6,0,0,1-5.9,2.3,32.7,32.7,0,0,1-6.934.723A35.744,35.744,0,0,1,215.43,84.945Zm35.2,0v-10A26.281,26.281,0,0,0,256.7,77.68a20.14,20.14,0,0,0,5.723.9,12.274,12.274,0,0,0,5.176-.9,2.9,2.9,0,0,0,1.895-2.734,2.53,2.53,0,0,0-.859-1.953,7.988,7.988,0,0,0-2.207-1.367,25.045,25.045,0,0,0-2.949-1.055q-1.6-.469-3.086-1.055a29.568,29.568,0,0,1-4.2-1.934,12.137,12.137,0,0,1-3.047-2.4,9.443,9.443,0,0,1-1.875-3.164,12.626,12.626,0,0,1-.645-4.258,10.961,10.961,0,0,1,1.465-5.781A11.965,11.965,0,0,1,256,48.012a17.848,17.848,0,0,1,5.586-2.266,29.126,29.126,0,0,1,6.543-.723,36.3,36.3,0,0,1,5.391.41,40.235,40.235,0,0,1,5.391,1.191v9.531a19.479,19.479,0,0,0-5.02-2.051,21.174,21.174,0,0,0-5.254-.684,11.641,11.641,0,0,0-2.285.215,7.526,7.526,0,0,0-1.895.625,3.479,3.479,0,0,0-1.289,1.055,2.428,2.428,0,0,0-.469,1.465,2.706,2.706,0,0,0,.7,1.875A6.107,6.107,0,0,0,265.234,60a18.125,18.125,0,0,0,2.52,1.016q1.387.449,2.754.918a35.805,35.805,0,0,1,4.453,1.875,14.239,14.239,0,0,1,3.418,2.383,9.357,9.357,0,0,1,2.188,3.2,12.816,12.816,0,0,1-.781,10.449,12.354,12.354,0,0,1-4.1,4.1,18.6,18.6,0,0,1-5.9,2.3,32.7,32.7,0,0,1-6.934.723A35.744,35.744,0,0,1,250.625,84.945ZM321.719,86h-11.68V80.258h-.156a13.036,13.036,0,0,1-11.914,6.719q-5.82,0-9.16-3.3a11.828,11.828,0,0,1-3.34-8.809q0-11.641,13.789-13.437l10.859-1.445q0-6.562-7.109-6.562a24.267,24.267,0,0,0-13.594,4.258v-9.3a30.582,30.582,0,0,1,7.051-2.344,37.064,37.064,0,0,1,8.145-1.016q17.109,0,17.109,17.07Zm-11.6-16.25v-2.7l-7.266.938q-6.016.781-6.016,5.43a4.487,4.487,0,0,0,1.465,3.457,5.629,5.629,0,0,0,3.965,1.348,7.308,7.308,0,0,0,5.664-2.4A8.677,8.677,0,0,0,310.117,69.75Zm47.461-12.617a10.708,10.708,0,0,0-5.2-1.211,7.485,7.485,0,0,0-6.289,2.949q-2.266,2.949-2.266,8.027V86H331.484V46h12.344v7.422h.156q2.93-8.125,10.547-8.125a7.949,7.949,0,0,1,3.047.469ZM404.609,46l-16.25,43.2Q382.5,104.789,370.7,104.789a22.621,22.621,0,0,1-7.383-1.016V93.93a10.381,10.381,0,0,0,5.352,1.445,6.685,6.685,0,0,0,6.641-4.492l2.109-4.961L361.172,46h13.672L382.3,70.336a31.623,31.623,0,0,1,1.094,5.352h.156a37.315,37.315,0,0,1,1.289-5.273L392.383,46Z" transform="translate(-4.336 -19.744)" fill="#d56060" stroke="#000" stroke-width="2"/></g></svg>