<svg xmlns="http://www.w3.org/2000/svg" width="190.135" height="43.919" viewBox="0 0 190.135 43.919"><g transform="translate(0.5 0.525)"><path d="M3.3,6.016A3.335,3.335,0,0,1,.924,5.151,2.8,2.8,0,0,1,0,3.027,2.7,2.7,0,0,1,.925.911,3.447,3.447,0,0,1,3.3.091a3.437,3.437,0,0,1,2.384.82A2.709,2.709,0,0,1,6.6,3.025a2.788,2.788,0,0,1-.916,2.152A3.393,3.393,0,0,1,3.3,6.016ZM6.124,27.64H.394L.4,8.97h5.73ZM29.773,6.285H22.357l0,21.35H16.478l0-21.35H9.1v-4.8l20.672,0ZM61.158,25.5q0,5.2-2.993,8.05T49.5,36.4a13.67,13.67,0,0,1-5.947-1.075v-4.85a11.34,11.34,0,0,0,5.784,1.676,6.212,6.212,0,0,0,4.5-1.542,5.547,5.547,0,0,0,1.6-4.185V24.95h-.073a6.394,6.394,0,0,1-5.785,3.137,6.939,6.939,0,0,1-5.639-2.515,10.238,10.238,0,0,1-2.084-6.746A11.411,11.411,0,0,1,44.17,11.3a7.563,7.563,0,0,1,6.111-2.791,5.628,5.628,0,0,1,5.077,2.625h.073V8.96h5.73ZM55.5,18.66V17.183a4.552,4.552,0,0,0-1.042-3.017,3.364,3.364,0,0,0-2.711-1.248,3.5,3.5,0,0,0-2.992,1.5,7.062,7.062,0,0,0-1.089,4.212A5.956,5.956,0,0,0,48.7,22.317a3.36,3.36,0,0,0,2.828,1.358A3.5,3.5,0,0,0,54.4,22.3,5.667,5.667,0,0,0,55.5,18.66Zm16.173,8.967h-5.73L65.95-.013h5.73Zm13.672.453a9.946,9.946,0,0,1-7.3-2.615,9.511,9.511,0,0,1-2.655-7.1,9.517,9.517,0,0,1,2.758-7.248A10.384,10.384,0,0,1,85.6,8.5a9.826,9.826,0,0,1,7.253,2.615,9.325,9.325,0,0,1,2.628,6.919,9.906,9.906,0,0,1-2.712,7.348A10.064,10.064,0,0,1,85.347,28.08Zm.148-15.17a3.815,3.815,0,0,0-3.155,1.4,6.217,6.217,0,0,0-1.125,3.975q0,5.379,4.315,5.378,4.116,0,4.117-5.525Q89.647,12.91,85.495,12.911ZM97.986,27.13V22.462a12.161,12.161,0,0,0,2.819,1.276,9.3,9.3,0,0,0,2.656.419,5.671,5.671,0,0,0,2.4-.42,1.355,1.355,0,0,0,.88-1.276,1.183,1.183,0,0,0-.4-.912,3.7,3.7,0,0,0-1.024-.638,11.581,11.581,0,0,0-1.369-.492q-.743-.219-1.432-.492a13.684,13.684,0,0,1-1.949-.9A5.636,5.636,0,0,1,99.157,17.9a4.41,4.41,0,0,1-.87-1.477,5.922,5.922,0,0,1-.3-1.987,5.14,5.14,0,0,1,.68-2.7,5.574,5.574,0,0,1,1.814-1.851,8.263,8.263,0,0,1,2.593-1.058,13.451,13.451,0,0,1,3.037-.338,16.761,16.761,0,0,1,2.5.191,18.584,18.584,0,0,1,2.5.556V13.69a9.01,9.01,0,0,0-2.33-.957,9.777,9.777,0,0,0-2.439-.319,5.375,5.375,0,0,0-1.061.1,3.482,3.482,0,0,0-.88.292,1.618,1.618,0,0,0-.6.492,1.138,1.138,0,0,0-.218.684,1.267,1.267,0,0,0,.326.875,2.834,2.834,0,0,0,.852.629,8.383,8.383,0,0,0,1.169.474q.644.21,1.278.428a16.565,16.565,0,0,1,2.067.875,6.606,6.606,0,0,1,1.586,1.112,4.366,4.366,0,0,1,1.015,1.495,5.339,5.339,0,0,1,.353,2.042,5.351,5.351,0,0,1-.717,2.835,5.753,5.753,0,0,1-1.9,1.915,8.61,8.61,0,0,1-2.738,1.076,15.1,15.1,0,0,1-3.219.338A16.507,16.507,0,0,1,97.986,27.13Zm16.338,0V22.459a12.161,12.161,0,0,0,2.819,1.276,9.3,9.3,0,0,0,2.656.419,5.671,5.671,0,0,0,2.4-.42,1.355,1.355,0,0,0,.88-1.276,1.183,1.183,0,0,0-.4-.912,3.7,3.7,0,0,0-1.024-.638,11.58,11.58,0,0,0-1.369-.492q-.743-.219-1.432-.492a13.684,13.684,0,0,1-1.949-.9,5.636,5.636,0,0,1-1.414-1.121,4.41,4.41,0,0,1-.87-1.477,5.922,5.922,0,0,1-.3-1.987,5.14,5.14,0,0,1,.68-2.7,5.574,5.574,0,0,1,1.814-1.851,8.263,8.263,0,0,1,2.593-1.058,13.451,13.451,0,0,1,3.037-.338,16.761,16.761,0,0,1,2.5.191,18.585,18.585,0,0,1,2.5.556v4.449a9.011,9.011,0,0,0-2.33-.957,9.777,9.777,0,0,0-2.439-.319,5.376,5.376,0,0,0-1.061.1,3.482,3.482,0,0,0-.88.292,1.618,1.618,0,0,0-.6.492,1.138,1.138,0,0,0-.218.684,1.267,1.267,0,0,0,.326.875,2.834,2.834,0,0,0,.852.629,8.384,8.384,0,0,0,1.169.474q.644.21,1.278.428a16.565,16.565,0,0,1,2.067.875,6.606,6.606,0,0,1,1.586,1.112,4.366,4.366,0,0,1,1.015,1.495,5.339,5.339,0,0,1,.353,2.042,5.351,5.351,0,0,1-.717,2.835,5.754,5.754,0,0,1-1.9,1.915,8.61,8.61,0,0,1-2.738,1.076,15.1,15.1,0,0,1-3.219.338A16.507,16.507,0,0,1,114.324,27.127Zm33,.486H141.9v-2.68h-.073A6.048,6.048,0,0,1,136.3,28.07a5.765,5.765,0,0,1-4.252-1.54,5.535,5.535,0,0,1-1.55-4.111q0-5.433,6.4-6.273l5.041-.676q0-3.063-3.3-3.062a11.225,11.225,0,0,0-6.311,1.989V10.057a14.148,14.148,0,0,1,3.273-1.095,17.119,17.119,0,0,1,3.781-.475q7.942,0,7.941,7.966Zm-5.384-7.584V18.771l-3.373.438q-2.793.365-2.793,2.535a2.1,2.1,0,0,0,.68,1.613,2.6,2.6,0,0,0,1.84.629,3.385,3.385,0,0,0,2.63-1.122A4.065,4.065,0,0,0,141.941,20.029Zm22.033-5.893a4.947,4.947,0,0,0-2.412-.565,3.469,3.469,0,0,0-2.92,1.377,6.031,6.031,0,0,0-1.052,3.747l0,8.916h-5.73l0-18.67h5.73V12.4h.073q1.361-3.793,4.9-3.793a3.671,3.671,0,0,1,1.414.219Zm21.833-5.2L178.26,29.1q-2.721,7.275-8.2,7.276a10.446,10.446,0,0,1-3.427-.473V31.31a4.8,4.8,0,0,0,2.484.674,3.105,3.105,0,0,0,3.083-2.1l.98-2.316-7.54-18.632h6.347L175.451,20.3a14.829,14.829,0,0,1,.507,2.5h.073a17.507,17.507,0,0,1,.6-2.462l3.5-11.4Z" transform="matrix(0.999, -0.035, 0.035, 0.999, 1.932, 6.498)" fill="#fff" stroke="#000" stroke-width="1"/><path d="M3.277,4.79A3.822,3.822,0,0,1,.918,4.1,2.053,2.053,0,0,1,0,2.41,1.986,1.986,0,0,1,.918.726,3.974,3.974,0,0,1,3.277.073,3.965,3.965,0,0,1,5.644.726,1.991,1.991,0,0,1,6.553,2.41a2.04,2.04,0,0,1-.909,1.713A3.9,3.9,0,0,1,3.277,4.79ZM6.085,22.005H.4V7.142H6.085Zm23.476-17H22.2v17H16.365v-17H9.038V1.19H29.561Zm31.164,15.3a7.6,7.6,0,0,1-2.971,6.409q-2.971,2.272-8.606,2.272a16.546,16.546,0,0,1-5.905-.856V24.27a13.4,13.4,0,0,0,5.743,1.335,7.149,7.149,0,0,0,4.465-1.227,3.989,3.989,0,0,0,1.584-3.331V19.872h-.072a6.834,6.834,0,0,1-5.743,2.5,7.711,7.711,0,0,1-5.6-2,7.128,7.128,0,0,1-2.07-5.371A7.938,7.938,0,0,1,43.856,9a8.375,8.375,0,0,1,6.067-2.221,6.071,6.071,0,0,1,5.041,2.09h.072V7.142h5.689Zm-5.617-5.443V13.688a3.209,3.209,0,0,0-1.035-2.4,3.724,3.724,0,0,0-2.691-.994,3.809,3.809,0,0,0-2.971,1.19,4.813,4.813,0,0,0-1.08,3.353,4.1,4.1,0,0,0,1.026,2.939,3.687,3.687,0,0,0,2.809,1.081,3.846,3.846,0,0,0,2.854-1.1A3.928,3.928,0,0,0,55.108,14.864Zm16.059,7.142H65.478V0h5.689Zm13.574.363A11.4,11.4,0,0,1,77.5,20.285a6.821,6.821,0,0,1-2.637-5.654,6.845,6.845,0,0,1,2.737-5.77,11.929,11.929,0,0,1,7.4-2.083,11.252,11.252,0,0,1,7.2,2.083,6.7,6.7,0,0,1,2.61,5.509,7.084,7.084,0,0,1-2.691,5.85A11.508,11.508,0,0,1,84.742,22.368Zm.144-12.077a4.232,4.232,0,0,0-3.133,1.118,4.283,4.283,0,0,0-1.116,3.164q0,4.282,4.285,4.282,4.087,0,4.087-4.4Q89.008,10.291,84.886,10.291Zm12.4,11.322V17.9a13.705,13.705,0,0,0,2.8,1.016,11.351,11.351,0,0,0,2.637.334,6.871,6.871,0,0,0,2.385-.334q.873-.334.873-1.016a.87.87,0,0,0-.4-.726,3.905,3.905,0,0,0-1.017-.508,13.466,13.466,0,0,0-1.359-.392q-.738-.174-1.422-.392a15.358,15.358,0,0,1-1.935-.719,5.578,5.578,0,0,1-1.4-.893,3.449,3.449,0,0,1-.864-1.176,3.869,3.869,0,0,1-.3-1.582,3.478,3.478,0,0,1,.675-2.148,5.094,5.094,0,0,1,1.8-1.473,9.43,9.43,0,0,1,2.574-.842,16.525,16.525,0,0,1,3.016-.269,20.681,20.681,0,0,1,2.484.152,22.43,22.43,0,0,1,2.484.443v3.542a10.293,10.293,0,0,0-2.313-.762,11.983,11.983,0,0,0-2.421-.254,6.617,6.617,0,0,0-1.053.08,4.074,4.074,0,0,0-.873.232,1.579,1.579,0,0,0-.594.392.79.79,0,0,0-.216.544.9.9,0,0,0,.324.7,2.86,2.86,0,0,0,.846.5,9.6,9.6,0,0,0,1.161.377q.639.167,1.269.341a18.858,18.858,0,0,1,2.052.7,6.769,6.769,0,0,1,1.575.885,3.557,3.557,0,0,1,1.008,1.19,3.512,3.512,0,0,1,.351,1.626,3.623,3.623,0,0,1-.711,2.257,5.284,5.284,0,0,1-1.89,1.524,9.874,9.874,0,0,1-2.718.856,18.567,18.567,0,0,1-3.2.269A20.088,20.088,0,0,1,97.29,21.613Zm16.221,0V17.9a13.705,13.705,0,0,0,2.8,1.016,11.351,11.351,0,0,0,2.637.334,6.871,6.871,0,0,0,2.385-.334q.873-.334.873-1.016a.87.87,0,0,0-.4-.726,3.905,3.905,0,0,0-1.017-.508,13.465,13.465,0,0,0-1.359-.392q-.738-.174-1.422-.392a15.359,15.359,0,0,1-1.935-.719,5.578,5.578,0,0,1-1.4-.893,3.449,3.449,0,0,1-.864-1.176,3.869,3.869,0,0,1-.3-1.582,3.478,3.478,0,0,1,.675-2.148,5.094,5.094,0,0,1,1.8-1.473,9.43,9.43,0,0,1,2.574-.842,16.525,16.525,0,0,1,3.016-.269,20.681,20.681,0,0,1,2.484.152,22.431,22.431,0,0,1,2.484.443v3.542a10.293,10.293,0,0,0-2.313-.762A11.983,11.983,0,0,0,121.81,9.9a6.617,6.617,0,0,0-1.053.08,4.074,4.074,0,0,0-.873.232,1.579,1.579,0,0,0-.594.392.79.79,0,0,0-.216.544.9.9,0,0,0,.324.7,2.86,2.86,0,0,0,.846.5,9.6,9.6,0,0,0,1.161.377q.639.167,1.269.341a18.858,18.858,0,0,1,2.052.7,6.769,6.769,0,0,1,1.575.885,3.557,3.557,0,0,1,1.008,1.19,3.512,3.512,0,0,1,.351,1.626,3.623,3.623,0,0,1-.711,2.257,5.284,5.284,0,0,1-1.89,1.524,9.874,9.874,0,0,1-2.718.856,18.567,18.567,0,0,1-3.2.269A20.088,20.088,0,0,1,113.511,21.613Zm32.766.392h-5.383V19.872h-.072a6.407,6.407,0,0,1-5.491,2.5,6.6,6.6,0,0,1-4.222-1.227,3.973,3.973,0,0,1-1.539-3.273q0-4.326,6.355-4.993l5-.537q0-2.439-3.277-2.439a13.142,13.142,0,0,0-6.265,1.582V8.027a16.532,16.532,0,0,1,3.25-.871,21,21,0,0,1,3.754-.377q7.885,0,7.885,6.343Zm-5.347-6.038v-1l-3.349.348q-2.773.29-2.773,2.018a1.534,1.534,0,0,0,.675,1.285,3,3,0,0,0,1.827.5,3.792,3.792,0,0,0,2.61-.893A2.885,2.885,0,0,0,140.93,15.967ZM162.8,11.278a5.92,5.92,0,0,0-2.394-.45,3.813,3.813,0,0,0-2.9,1.1,4.146,4.146,0,0,0-1.044,2.983v7.1h-5.689V7.142h5.689V9.9h.072A4.881,4.881,0,0,1,161.4,6.88a4.468,4.468,0,0,1,1.4.174ZM184.48,7.142,176.99,23.2q-2.7,5.792-8.137,5.792a12.765,12.765,0,0,1-3.4-.377V24.952a5.689,5.689,0,0,0,2.466.537,3.145,3.145,0,0,0,3.061-1.669l.972-1.843L164.46,7.142h6.3l3.439,9.043a9.8,9.8,0,0,1,.5,1.989h.072a11.69,11.69,0,0,1,.594-1.96l3.475-9.072Z" transform="translate(0 7.016)" fill="#d56060" stroke="#000" stroke-width="1"/></g></svg>