<svg xmlns="http://www.w3.org/2000/svg" width="30.757" height="30.757" viewBox="0 0 30.757 30.757"><g transform="translate(-0.5 -0.5)"><path d="M27.127,18.813A8.313,8.313,0,1,1,18.813,10.5,8.313,8.313,0,0,1,27.127,18.813Z" transform="translate(-2.935 -2.935)" fill="#d56060" stroke="#d56060" stroke-linecap="round" stroke-linejoin="round" stroke-width="2"/><path d="M18,1.5V4.114" transform="translate(-2.122 0)" fill="#d56060" stroke="#d56060" stroke-linecap="round" stroke-linejoin="round" stroke-width="2"/><path d="M18,31.5v2.614" transform="translate(-2.122 -3.858)" fill="#d56060" stroke="#d56060" stroke-linecap="round" stroke-linejoin="round" stroke-width="2"/><path d="M6.33,6.33,8.186,8.186" transform="translate(-0.621 -0.621)" fill="#d56060" stroke="#d56060" stroke-linecap="round" stroke-linejoin="round" stroke-width="2"/><path d="M27.54,27.54,29.4,29.4" transform="translate(-3.348 -3.348)" fill="#d56060" stroke="#d56060" stroke-linecap="round" stroke-linejoin="round" stroke-width="2"/><path d="M1.5,18H4.114" transform="translate(0 -2.122)" fill="#d56060" stroke="#d56060" stroke-linecap="round" stroke-linejoin="round" stroke-width="2"/><path d="M31.5,18h2.614" transform="translate(-3.858 -2.122)" fill="#d56060" stroke="#d56060" stroke-linecap="round" stroke-linejoin="round" stroke-width="2"/><path d="M6.33,29.4,8.186,27.54" transform="translate(-0.621 -3.348)" fill="#d56060" stroke="#d56060" stroke-linecap="round" stroke-linejoin="round" stroke-width="2"/><path d="M27.54,8.186,29.4,6.33" transform="translate(-3.348 -0.621)" fill="#d56060" stroke="#d56060" stroke-linecap="round" stroke-linejoin="round" stroke-width="2"/></g></svg>